<svg width="227" height="137" viewBox="0 0 227 137" fill="none" xmlns="http://www.w3.org/2000/svg">
<path fill-rule="evenodd" clip-rule="evenodd" d="M190.318 11L217 20.8543V72.0297L182.588 119.667C181.987 120.516 181.056 121.011 180.086 121C179.038 120.989 178.068 120.43 177.457 119.495C176.846 118.56 176.672 117.357 176.982 116.261L183.422 94.854L187.971 79.766H147.342C144.306 79.766 141.426 78.283 139.457 75.7253C137.488 73.1569 136.644 69.7609 137.138 66.4404L142.483 30.4729C144.102 19.4579 152.648 11.3552 162.715 11.2691L190.318 11.0004L190.318 11ZM191.85 0L162.723 0.288094H162.732C147.744 0.426801 135.02 12.4947 132.582 28.8735L127.274 64.5855V64.5962C126.292 71.1904 127.977 77.9231 131.888 83.0234C135.789 88.113 141.52 91.0579 147.551 91.0579H173.645L167.249 112.312V112.302C165.63 117.658 166.892 123.569 170.495 127.56L170.553 127.624V127.634C173.259 130.633 176.997 132.212 180.821 131.977C184.635 131.742 188.19 129.715 190.579 126.397L227 75.9808V12.9753L191.85 0ZM46.9309 5.0009C42.8469 4.99022 38.9743 7.04956 36.4219 10.5921L0 61.0192V124.025L35.1494 137L64.2771 136.712H64.2674C79.2556 136.563 91.9796 124.495 94.4184 108.115L99.7258 72.403C100.708 65.8088 99.0226 59.0654 95.1118 53.9757C91.2107 48.8754 85.4794 45.9412 79.4492 45.9412H53.3547L59.7508 24.6864C61.3691 19.3301 60.1072 13.4295 56.5047 9.42828L56.4468 9.36425C53.9232 6.56878 50.5035 4.9894 46.9298 5.00005L46.9309 5.0009ZM46.9146 16C47.9621 16.0215 48.932 16.5803 49.543 17.5151C50.1541 18.4499 50.3287 19.6534 50.0183 20.7495L43.5683 42.1542L39.0292 57.2407H79.658C82.694 57.2407 85.5745 58.7128 87.5434 61.2811C89.5124 63.8493 90.3562 67.2449 89.8615 70.5651L84.5174 106.529C82.8977 117.533 74.3526 125.645 64.2852 125.731L36.682 126L10 116.147V64.9759L44.4115 17.3428C45.0128 16.4832 45.944 15.9996 46.9138 16.0104L46.9146 16Z" fill="white"/>
</svg>
